<?xml version="1.0" encoding="utf-8"?>
<!-- Generator: Adobe Illustrator 20.1.0, SVG Export Plug-In . SVG Version: 6.00 Build 0)  -->
<svg version="1.1" id="Layer_1" xmlns="http://www.w3.org/2000/svg" xmlns:xlink="http://www.w3.org/1999/xlink" x="0px" y="0px"
	 viewBox="0 0 67 67" style="enable-background:new 0 0 67 67;" xml:space="preserve">
<style type="text/css">
	.st0{fill:#010101;}
</style>
<path class="st0" d="M52.3,49.3V36.3c0-7-3.7-10.2-8.7-10.2c-4,0-5.8,2.2-6.8,3.8v-3.2h-7.6c0.1,2.1,0,22.8,0,22.8h7.6V36.6
	c0-0.7,0-1.4,0.2-1.8c0.5-1.4,1.8-2.8,3.9-2.8c2.7,0,3.8,2.1,3.8,5.1v12.2L52.3,49.3L52.3,49.3z M21.3,23.4c2.6,0,4.3-1.7,4.3-3.9
	c0-2.2-1.6-3.9-4.2-3.9S17,17.3,17,19.5C17,21.7,18.7,23.4,21.3,23.4L21.3,23.4z M33.6,67C15.1,67,0.1,52,0.1,33.6
	c0-18.5,15-33.4,33.4-33.4S67,15.1,67,33.6C67,52,52,67,33.6,67z M25,49.3V26.6h-7.6v22.8H25z"/>
</svg>
