<?xml version="1.0" encoding="utf-8"?>
<!-- Generator: Adobe Illustrator 20.1.0, SVG Export Plug-In . SVG Version: 6.00 Build 0)  -->
<svg version="1.1" id="Layer_1" xmlns="http://www.w3.org/2000/svg" xmlns:xlink="http://www.w3.org/1999/xlink" x="0px" y="0px"
	 viewBox="0 0 56.7 56.7" style="enable-background:new 0 0 56.7 56.7;" xml:space="preserve">
<g>
	<g>
		<path d="M28.3,0C12.7,0,0,12.7,0,28.3C0,44,12.7,56.7,28.3,56.7C44,56.7,56.7,44,56.7,28.3C56.7,12.7,44,0,28.3,0z M32.1,34
			L32.1,34l-8,0v8.5h-5.7V14.2l13.7,0v0c5.5,0,9.9,4.4,9.9,9.9C42,29.6,37.6,34,32.1,34z"/>
	</g>
	<g>
		<path d="M32.1,19.8L32.1,19.8l-8,0v8.5h8v0c2.3,0,4.3-1.9,4.3-4.3C36.4,21.7,34.5,19.8,32.1,19.8z"/>
	</g>
</g>
</svg>
